<svg xmlns="http://www.w3.org/2000/svg" viewBox="0 0 512 512"><path d="M509.52 181.495L330.096 2.48c-3.307-3.307-8.747-3.307-12.054 0l-36.269 36.166c-3.307 3.307-3.307 8.748 0 12.055l11.947 11.842L35.145 320.61c-41.389 41.286-48.11 108.817-10.027 153.09 21.974 25.604 52.803 38.406 83.631 38.299 28.162 0 56.324-10.668 77.765-32.111L449.25 217.767l11.947 11.842c3.307 3.307 8.747 3.307 12.054 0l36.269-36.166c3.307-3.2 3.307-8.641 0-11.948zm-170.357 74.571H171.686L329.562 98.495l83.739 83.533-74.138 74.038z"/></svg>