<svg xmlns="http://www.w3.org/2000/svg" viewBox="0 0 512 512"><path d="M321.309 503.58C300.457 509.074 278.568 512 256 512c-22.568 0-44.457-2.926-65.309-8.42l-.398-.398C80.782 474.169 0 374.613 0 256 0 114.631 114.631 0 256 0s256 114.631 256 256c0 118.613-80.782 218.169-190.293 247.182l-.398.398zM256 56.889c47.218 0 85.333 38.115 85.333 85.333 0 47.218-38.115 85.334-85.333 85.334-47.218 0-85.333-38.116-85.333-85.334S208.782 56.889 256 56.889zm0 406.755c-71.111 0-133.973-36.408-170.667-91.591.854-56.604 113.778-87.609 170.667-87.609 56.604 0 169.813 31.005 170.667 87.609-36.694 55.183-99.556 91.591-170.667 91.591z" fill-rule="evenodd"/></svg>